<?xml version="1.0" encoding="utf-8"?>
<!-- Generator: Adobe Illustrator 25.3.1, SVG Export Plug-In . SVG Version: 6.00 Build 0)  -->
<svg version="1.1" id="Layer_1" xmlns="http://www.w3.org/2000/svg" xmlns:xlink="http://www.w3.org/1999/xlink" x="0px" y="0px"
	 viewBox="0 0 566.9 566.9" style="enable-background:new 0 0 566.9 566.9;" xml:space="preserve">
<style type="text/css">
	.st0{fill:#EE2524;}
	.st1{fill-rule:evenodd;clip-rule:evenodd;fill:#42469D;}
	.st2{fill:#C62026;}
	.st3{fill:#1E3668;}
	.st4{fill:#A7CF38;}
	.st5{font-family:'VisbyRoundCF-ExtraBold';}
	.st6{font-size:43.1371px;}
	.st7{letter-spacing:-2;}
	.st8{font-family:'VisbyRoundCF-Regular';}
	.st9{font-size:17.3845px;}
</style>
<text transform="matrix(1 0 0 1 97.9664 386.6804)"><tspan x="0" y="0" class="st4 st5 st6 st7">Book</tspan><tspan x="95.8" y="0" class="st3 st5 st6 st7">Medi</tspan><tspan x="189.2" y="0" class="st4 st5 st6 st7">Services</tspan></text>
<g>
	<text transform="matrix(1 0 0 1 134.0024 407.4444)" class="st3 st8 st9">Accessible &amp; Affordable HealthCare</text>
</g>
<polygon class="st3" points="438.4,262.5 275,226.7 111.5,262.5 111.5,262.5 275,190.8 438.4,262.5 "/>
<path class="st4" d="M354.6,252.8c-6.3,6.5-13,12.5-19.9,18.5c-5.1,4.5-10.2,8.9-15.3,13.3c-9.2,8-18.7,16.2-27.8,24.5
	c-5.4,4.9-10.9,10-16.6,15.3c-17.1-16.1-34.6-31.4-52.5-46.9c-10.3-8.9-18.9-16.5-27.1-24.8l-9.1,2c0.7,0.7,1.3,1.4,2,2.1
	c9.5,9.9,20.3,19.3,29,26.7c18.4,15.9,36.4,31.6,53.8,48.1c1.2,1.2,2.6,1.7,3.9,1.7c1.4,0,2.7-0.6,4-1.8
	c6.1-5.7,12.2-11.3,18.1-16.7c9.1-8.3,18.5-16.5,27.7-24.4c5-4.4,10.2-8.9,15.3-13.3c7.9-7,16.2-14.4,23.7-22.5L354.6,252.8z"/>
<g>
	<path class="st4" d="M167.3,227.7c0.1,0.2,0.1,0.3,0.2,0.5L275,181l107.4,47.1c0.4-0.9,0.8-1.7,1.2-2.6c5-11.6,7.4-24.5,7.5-40.6
		c0.1-4.2-0.1-8-0.7-11.6c-2.5-16.1-9.9-29.2-22-38.9c-11.7-9.4-25.6-13.9-41.3-13.5c-10.8,0.3-21.2,3.4-30.8,9.2
		c-8.2,5-15.4,11.7-21.4,20.2c-3.6-5-7.4-9.3-11.6-12.9c-17.7-15.3-37.9-20.1-60.1-14.1c-25.8,7-43.7,30.1-44.5,57.4
		c-0.2,6.6,0.1,13.2,0.9,19.7C161,210.5,163.5,219.4,167.3,227.7z"/>
</g>
<g>
	<rect x="259.3" y="264.3" class="st3" width="14.5" height="14.5"/>
	<rect x="276.1" y="264.3" class="st3" width="14.5" height="14.5"/>
	<rect x="259.3" y="246.2" class="st3" width="14.5" height="14.5"/>
	<rect x="276.1" y="246.2" class="st3" width="14.5" height="14.5"/>
</g>
</svg>
